HIERARCHY
ROOT Hips
{
	OFFSET 0.000000 89.005402 0.000000
	CHANNELS 6 Xposition Yposition Zposition Xrotation Yrotation Zrotation
	JOINT Spine
	{
		OFFSET 0.116900 10.681000 0.373400
		CHANNELS 3 Xrotation Yrotation Zrotation
		JOINT Spine1
		{
			OFFSET 0.000000 13.840401 0.053500
			CHANNELS 3 Xrotation Yrotation Zrotation
			JOINT Spine2
			{
				OFFSET 0.000000 14.712700 -0.366200
				CHANNELS 3 Xrotation Yrotation Zrotation
				JOINT Neck
				{
					OFFSET 0.000000 35.415497 -3.314200
					CHANNELS 3 Xrotation Yrotation Zrotation
					JOINT Head
					{
						OFFSET 0.000000 16.899200 1.218300
						CHANNELS 3 Xrotation Yrotation Zrotation
						JOINT HeadTop_End
						{
							OFFSET 0.000000 22.206207 2.192500
							CHANNELS 3 Xrotation Yrotation Zrotation
							End Site
							{
								OFFSET 0.000000 22.314178 0.000000
							}
						}
					}
				}
				JOINT LeftShoulder
				{
					OFFSET 12.896400 26.716293 -4.548400
					CHANNELS 3 Xrotation Yrotation Zrotation
					JOINT LeftArm
					{
						OFFSET 19.027000 -4.857010 -1.718400
						CHANNELS 3 Xrotation Yrotation Zrotation
						JOINT LeftForeArm
						{
							OFFSET 24.179897 0.000000 0.000000
							CHANNELS 3 Xrotation Yrotation Zrotation
							JOINT LeftHand
							{
								OFFSET 27.156403 0.000000 0.000000
								CHANNELS 3 Xrotation Yrotation Zrotation
								JOINT LeftHandIndex1
								{
									OFFSET 16.441200 0.000000 0.000000
									CHANNELS 3 Xrotation Yrotation Zrotation
									JOINT LeftHandIndex2
									{
										OFFSET 4.821899 0.000000 0.000000
										CHANNELS 3 Xrotation Yrotation Zrotation
										JOINT LeftHandIndex3
										{
											OFFSET 6.386497 0.000000 0.000000
											CHANNELS 3 Xrotation Yrotation Zrotation
											JOINT LeftHandIndex4
											{
												OFFSET 5.188988 0.000000 0.000000
												CHANNELS 3 Xrotation Yrotation Zrotation
												End Site
												{
													OFFSET -0.178703 5.185913 0.000177
												}
											}
										}
									}
								}
								JOINT LeftHandThumb1
								{
									OFFSET 6.534897 -5.032593 5.900300
									CHANNELS 3 Xrotation Yrotation Zrotation
									JOINT LeftHandThumb2
									{
										OFFSET 3.818176 -2.204422 2.204423
										CHANNELS 3 Xrotation Yrotation Zrotation
										JOINT LeftHandThumb3
										{
											OFFSET 3.252098 -1.877594 1.877601
											CHANNELS 3 Xrotation Yrotation Zrotation
											JOINT LeftHandThumb4
											{
												OFFSET 5.251778 -3.032120 3.032117
												CHANNELS 3 Xrotation Yrotation Zrotation
												End Site
												{
													OFFSET 0.000023 6.780014 0.000000
												}
											}
										}
									}
								}
							}
						}
					}
				}
				JOINT RightShoulder
				{
					OFFSET -12.896300 26.716293 -4.548400
					CHANNELS 3 Xrotation Yrotation Zrotation
					JOINT RightArm
					{
						OFFSET -19.027000 -4.857010 -1.718400
						CHANNELS 3 Xrotation Yrotation Zrotation
						JOINT RightForeArm
						{
							OFFSET -24.179897 0.000000 0.000000
							CHANNELS 3 Xrotation Yrotation Zrotation
							JOINT RightHand
							{
								OFFSET -27.156403 0.000000 0.000000
								CHANNELS 3 Xrotation Yrotation Zrotation
								JOINT RightHandThumb1
								{
									OFFSET -6.591202 -4.852203 5.988100
									CHANNELS 3 Xrotation Yrotation Zrotation
									JOINT RightHandThumb2
									{
										OFFSET -3.818176 -2.204422 2.204423
										CHANNELS 3 Xrotation Yrotation Zrotation
										JOINT RightHandThumb3
										{
											OFFSET -3.252098 -1.877594 1.877601
											CHANNELS 3 Xrotation Yrotation Zrotation
											JOINT RightHandThumb4
											{
												OFFSET -5.251778 -3.032120 3.032117
												CHANNELS 3 Xrotation Yrotation Zrotation
												End Site
												{
													OFFSET -0.000023 6.780014 0.000000
												}
											}
										}
									}
								}
								JOINT RightHandIndex1
								{
									OFFSET -16.029404 0.000000 0.000000
									CHANNELS 3 Xrotation Yrotation Zrotation
									JOINT RightHandIndex2
									{
										OFFSET -5.213303 0.000000 0.000000
										CHANNELS 3 Xrotation Yrotation Zrotation
										JOINT RightHandIndex3
										{
											OFFSET -6.386528 0.000000 0.000000
											CHANNELS 3 Xrotation Yrotation Zrotation
											JOINT RightHandIndex4
											{
												OFFSET -5.189026 0.000000 0.000000
												CHANNELS 3 Xrotation Yrotation Zrotation
												End Site
												{
													OFFSET 0.236702 5.183624 0.001972
												}
											}
										}
									}
								}
							}
						}
					}
				}
			}
		}
	}
	JOINT LeftUpLeg
	{
		OFFSET 14.073000 -7.904099 -1.463000
		CHANNELS 3 Xrotation Yrotation Zrotation
		JOINT LeftLeg
		{
			OFFSET -0.109806 -34.073280 4.093200
			CHANNELS 3 Xrotation Yrotation Zrotation
			JOINT LeftFoot
			{
				OFFSET 0.109806 -29.899420 -6.319000
				CHANNELS 3 Xrotation Yrotation Zrotation
				JOINT LeftToeBase
				{
					OFFSET 1.551100 -14.988700 20.535801
					CHANNELS 3 Xrotation Yrotation Zrotation
					JOINT LeftToe_End
					{
						OFFSET 0.221200 0.570800 13.248301
						CHANNELS 3 Xrotation Yrotation Zrotation
						End Site
						{
							OFFSET 0.000000 13.262435 0.000000
						}
					}
				}
			}
		}
	}
	JOINT RightUpLeg
	{
		OFFSET -13.839300 -7.904099 -1.463000
		CHANNELS 3 Xrotation Yrotation Zrotation
		JOINT RightLeg
		{
			OFFSET 0.109694 -34.073219 4.093300
			CHANNELS 3 Xrotation Yrotation Zrotation
			JOINT RightFoot
			{
				OFFSET -0.109694 -29.899384 -6.319200
				CHANNELS 3 Xrotation Yrotation Zrotation
				JOINT RightToeBase
				{
					OFFSET -1.551100 -14.988700 20.535801
					CHANNELS 3 Xrotation Yrotation Zrotation
					JOINT RightToe_End
					{
						OFFSET -0.221200 0.570900 13.248299
						CHANNELS 3 Xrotation Yrotation Zrotation
						End Site
						{
							OFFSET 0.000000 13.262440 0.000000
						}
					}
				}
			}
		}
	}
}
MOTION
Frames: 4
Frame Time: 0.033333
-27.080313 53.439598 22.655828 9.530929 -1.431406 0.792248 25.534845 2.201184 3.677201 1.610396 0.394518 -0.481508 1.619993 0.327138 -0.516650 1.525706 -0.176882 1.980280 -20.889891 9.730801 -19.261873 0.000001 0.000001 -0.000001 0.489725 -10.386614 -12.357920 -12.997258 26.329913 -34.722390 0.000161 -92.824573 0.000095 4.956455 -7.366452 41.632551 1.766204 4.913064 -29.798302 1.969549 4.825313 -44.387764 0.010815 0.386612 -3.205183 0.000001 0.000000 -0.000000 18.222197 22.735019 -5.208404 -0.809101 8.490818 9.364885 0.290184 -0.346246 -0.385767 0.000001 0.000000 0.000000 -0.270381 -3.646433 -4.265060 -29.942637 59.823578 50.828434 0.000017 111.544980 0.000005 54.533928 -37.275132 5.170632 1.640786 -3.850509 -6.116291 8.686937 -18.688422 -1.178185 17.549256 -52.854548 -7.153305 -0.000002 0.000001 -0.000003 2.342397 -5.815897 30.995385 3.892998 -6.243428 63.858813 0.104544 1.203658 -9.927852 0.000001 -0.000000 0.000000 -93.911338 -4.718430 10.778069 79.661842 -3.723469 0.941876 4.887806 0.444719 -7.839341 -3.683396 0.000003 0.000003 0.000000 0.000000 -0.000000 -94.414067 3.778241 -14.322278 85.443358 0.222307 1.036147 -0.389289 -0.470228 4.145778 -1.719327 0.000010 0.000001 -0.000000 0.000001 0.000000 
-27.079531 53.441544 22.655584 9.529798 -1.426351 0.803406 25.540000 2.194806 3.679837 1.610771 0.392682 -0.484814 1.620300 0.325026 -0.519783 1.510195 -0.190010 1.997934 -20.906733 9.682355 -19.276332 -0.000000 -0.000000 -0.000000 0.491678 -10.386629 -12.344688 -12.989660 26.328687 -34.737731 0.001703 -92.809102 0.001627 4.952402 -7.381392 41.641457 1.766211 4.913066 -29.798295 1.969529 4.825290 -44.387777 0.010815 0.386608 -3.205187 -0.000001 -0.000001 0.000001 18.222195 22.735021 -5.208400 -0.809102 8.490822 9.364888 0.290182 -0.346242 -0.385768 0.000001 -0.000003 0.000000 -0.270862 -3.644980 -4.270797 -29.965922 59.822881 50.863449 0.000003 111.541190 -0.000015 54.556129 -37.268408 5.182367 1.640785 -3.850505 -6.116291 8.686939 -18.688422 -1.178184 17.549258 -52.854551 -7.153309 -0.000001 -0.000002 -0.000000 2.342395 -5.815895 30.995392 3.892996 -6.243429 63.858806 0.104544 1.203658 -9.927850 0.000001 -0.000001 -0.000000 -93.903059 -4.706423 10.770531 79.653967 -3.714555 0.940904 4.889776 0.444206 -7.838766 -3.682295 -0.000002 -0.000002 -0.000000 0.000000 0.000000 -94.416430 3.786910 -14.325734 85.442798 0.230765 1.032958 -0.384257 -0.469428 4.133934 -1.720003 -0.000012 -0.000000 -0.000000 -0.000001 -0.000000 
-27.079895 53.443420 22.655123 9.525957 -1.424542 0.810908 25.548014 2.185787 3.681574 1.613603 0.390099 -0.487438 1.623104 0.322206 -0.522152 1.486523 -0.203754 2.025624 -20.910144 9.636085 -19.285693 0.000001 0.000000 -0.000001 0.493712 -10.381374 -12.328009 -12.980634 26.333644 -34.753249 -0.000249 -92.799274 -0.000195 4.944989 -7.396729 41.652997 1.766216 4.913079 -29.798319 1.969540 4.825314 -44.387760 0.010816 0.386606 -3.205185 0.000003 0.000001 -0.000001 18.222197 22.735022 -5.208400 -0.809102 8.490821 9.364886 0.290183 -0.346242 -0.385767 0.000002 -0.000000 0.000000 -0.271117 -3.645475 -4.272822 -30.002251 59.831098 50.904116 0.000072 111.535254 -0.000088 54.574888 -37.260027 5.192666 1.640785 -3.850507 -6.116291 8.686937 -18.688422 -1.178184 17.549259 -52.854548 -7.153304 -0.000000 -0.000003 -0.000001 2.342395 -5.815895 30.995388 3.892996 -6.243424 63.858806 0.104548 1.203658 -9.927850 0.000000 -0.000000 0.000001 -93.893053 -4.696801 10.764850 79.650674 -3.712290 0.941793 4.880714 0.445461 -7.830324 -3.670419 0.000001 0.000001 -0.000000 -0.000000 -0.000000 -94.412831 3.792453 -14.328094 85.443358 0.230046 1.030678 -0.383902 -0.469519 4.135318 -1.720125 0.000002 -0.000001 0.000000 0.000001 0.000000 
-27.080896 53.445381 22.654791 9.520296 -1.427822 0.814396 25.558571 2.177989 3.679795 1.617079 0.388041 -0.488559 1.626506 0.320032 -0.523076 1.461593 -0.213471 2.054312 -20.906379 9.606200 -19.282920 0.000001 0.000001 -0.000000 0.493783 -10.378821 -12.326156 -12.966838 26.338647 -34.736232 0.001996 -92.802190 0.001945 4.920298 -7.402969 41.677217 1.766209 4.913058 -29.798316 1.969532 4.825314 -44.387750 0.010814 0.386609 -3.205188 -0.000003 -0.000002 0.000001 18.222197 22.735021 -5.208400 -0.809102 8.490823 9.364889 0.290182 -0.346245 -0.385767 -0.000001 0.000002 0.000001 -0.271006 -3.648606 -4.269628 -30.037256 59.845441 50.935859 0.000047 111.529367 -0.000053 54.585919 -37.252207 5.198544 1.640787 -3.850511 -6.116293 8.686938 -18.688424 -1.178185 17.549258 -52.854551 -7.153307 -0.000002 -0.000003 -0.000000 2.342396 -5.815898 30.995388 3.892997 -6.243429 63.858806 0.104544 1.203658 -9.927850 0.000003 -0.000000 -0.000001 -93.882050 -4.693528 10.765539 79.651562 -3.704339 0.942143 4.871916 0.446524 -7.824681 -3.661766 0.000002 0.000003 -0.000000 -0.000000 -0.000000 -94.407086 3.791667 -14.324426 85.442251 0.226242 1.028165 -0.384555 -0.469366 4.134373 -1.719210 0.000003 0.000000 -0.000000 0.000002 -0.000000 
